HIERARCHY
ROOT hip
{
	OFFSET 0.000000 0.000000 0.000000 
	CHANNELS 6 Xposition Yposition Zposition Xrotation Zrotation Yrotation
	JOINT abdomen
	{
		OFFSET 0.000000 3.402643 0.000000 
		CHANNELS 3 Xrotation Zrotation Yrotation
		JOINT chest
		{
			OFFSET 0.000000 8.438565 -0.680529 
			CHANNELS 3 Xrotation Zrotation Yrotation
			JOINT neck
			{
				OFFSET 0.000000 10.207942 -0.272212 
				CHANNELS 3 Xrotation Zrotation Yrotation
				JOINT head
				{
					OFFSET 0.000000 3.130431 0.000000 
					CHANNELS 3 Xrotation Zrotation Yrotation
					End Site
					{
						OFFSET 0.000000 3.130435 0.000000 
					}
				}
			}
			JOINT lCollar
			{
				OFFSET 3.470700 6.669187 -0.816635 
				CHANNELS 3 Yrotation Zrotation Xrotation
				JOINT lShldr
				{
					OFFSET 3.198488 0.000000 0.000000 
					CHANNELS 3 Zrotation Yrotation Xrotation
					JOINT lForeArm
					{
						OFFSET 10.139888 0.000000 0.000000 
						CHANNELS 3 Yrotation Zrotation Xrotation
						JOINT lHand
						{
							OFFSET 8.370511 0.000000 0.000000 
							CHANNELS 3 Zrotation Yrotation Xrotation
							End Site
							{
								OFFSET 4.083176 0.000000 0.000000 
							}
						}
					}
				}
			}
			JOINT rCollar
			{
				OFFSET -3.470700 6.669187 -0.816635 
				CHANNELS 3 Yrotation Zrotation Xrotation
				JOINT rShldr
				{
					OFFSET -3.198488 0.000000 0.000000 
					CHANNELS 3 Zrotation Yrotation Xrotation
					JOINT rForeArm
					{
						OFFSET -10.139888 0.000000 0.000000 
						CHANNELS 3 Yrotation Zrotation Xrotation
						JOINT rHand
						{
							OFFSET -8.370511 0.000000 0.000000 
							CHANNELS 3 Zrotation Yrotation Xrotation
							End Site
							{
								OFFSET -4.083176 0.000000 0.000000 
							}
						}
					}
				}
			}
		}
	}
	JOINT lThigh
	{
		OFFSET 5.308129 -1.633274 1.361059 
		CHANNELS 3 Xrotation Zrotation Yrotation
		JOINT lShin
		{
			OFFSET -2.041588 -20.007561 0.000000 
			CHANNELS 3 Xrotation Zrotation Yrotation
			JOINT lFoot
			{
				OFFSET 0.000000 -19.190928 -1.224953 
				CHANNELS 3 Xrotation Yrotation Zrotation
				End Site
				{
					OFFSET 0.000000 -2.449906 4.627600 
				}
			}
		}
	}
	JOINT rThigh
	{
		OFFSET -5.308129 -1.633274 1.361059 
		CHANNELS 3 Xrotation Zrotation Yrotation
		JOINT rShin
		{
			OFFSET 2.041588 -20.007561 0.000000 
			CHANNELS 3 Xrotation Zrotation Yrotation
			JOINT rFoot
			{
				OFFSET 0.000000 -19.190928 -1.224953 
				CHANNELS 3 Xrotation Yrotation Zrotation
				End Site
				{
					OFFSET 0.000000 -2.449906 4.627600 
				}
			}
		}
	}
}
MOTION
Frames: 16
Frame Time: 0.033333
1.437097 52.053829 30.753019 173.901520 179.673187 2.322206 19.237206 -4.494103 -2.507141 -20.052742 6.447957 0.064547 -16.280752 -4.496927 2.239882 51.848335 4.852593 0.664657 6.816112 -12.311937 2.827527 -68.901291 -35.770741 24.186365 -48.049309 7.226588 7.380122 8.524705 12.647240 -57.347061 0.373195 8.812257 0.818997 62.734932 22.869576 15.387783 55.178455 -8.707561 10.305027 -8.534408 -12.637552 23.011578 -5.404414 3.628888 1.041522 22.466169 -5.687276 -3.847282 -20.243467 -2.651636 -3.669404 -12.103780 -8.697588 2.526268 32.005177 5.179598 5.100395 -28.260569 0.814864 2.311830 
1.414277 52.047264 30.758642 173.979172 179.755600 2.222984 19.415730 -4.575635 -2.448727 -20.062721 6.409043 0.083251 -16.359795 -4.445153 2.206575 51.890583 4.938454 0.654105 6.816112 -12.311937 2.827527 -68.879501 -35.841240 24.288345 -48.080429 7.233974 7.389399 8.524705 12.647240 -57.347061 0.373195 8.812257 0.818997 62.811813 22.910629 15.159305 55.125496 -8.699048 10.282325 -8.534408 -12.637552 23.040876 -5.272929 3.534801 1.201673 22.428682 -5.674039 -3.851115 -20.247746 -2.736811 -3.709608 -12.173405 -8.795970 2.491602 32.204128 5.170011 5.124877 -28.190434 0.843201 2.330387 
1.391456 52.036320 30.761772 174.027481 179.819260 2.102003 19.505369 -4.638409 -2.386997 -20.131618 6.380081 0.105153 -16.291021 -4.429602 2.191375 51.920063 4.970164 0.617253 6.816112 -12.311937 2.827527 -68.844727 -35.726311 24.490852 -48.204731 7.263951 7.437591 8.524705 12.647240 -57.239635 0.373195 8.812257 0.818997 62.872726 22.834042 14.997025 55.136265 -8.702120 10.292049 -8.534408 -12.637552 22.933453 -5.191339 3.454339 1.255537 22.426170 -5.687266 -3.834050 -20.227375 -2.693099 -3.671453 -12.298455 -8.872941 2.594022 32.412563 5.160646 5.160847 -28.210154 0.840580 2.328865 
1.372699 52.024128 30.776775 174.046570 179.841843 1.986520 19.592787 -4.610442 -2.406617 -20.170855 6.399681 0.100641 -16.288494 -4.377316 2.195681 51.965530 4.910555 0.595621 6.816112 -12.311937 2.827527 -68.864929 -35.724651 24.550369 -48.235863 7.271250 7.446922 8.524705 12.647240 -57.268932 0.373195 8.812257 0.818997 62.833103 22.852564 15.084954 55.136265 -8.702120 10.292049 -8.534408 -12.637552 22.884623 -5.175741 3.427789 1.342875 22.424158 -5.695723 -3.835558 -20.243105 -2.653543 -3.670540 -12.445310 -8.873263 2.722082 32.661289 5.150422 5.179630 -28.219955 0.851710 2.313710 
1.353004 52.014126 30.792408 173.997513 179.935730 1.917868 19.605247 -4.702329 -2.438939 -20.111671 6.458090 0.096952 -16.367971 -4.344349 2.168434 51.966591 4.811289 0.500035 6.816112 -12.311937 2.827527 -68.897652 -35.741589 24.791834 -48.381439 7.310415 7.512914 8.524705 12.647240 -57.063854 0.373195 8.812257 0.818997 62.771301 22.958435 15.130046 55.136265 -8.702120 10.292049 -8.534408 -12.637552 22.874857 -5.234650 3.330337 1.490052 22.464502 -5.695611 -3.839056 -20.249107 -2.678590 -3.674740 -12.731353 -9.011753 2.729993 32.939823 5.131256 5.228640 -28.158823 0.880578 2.355857 
1.323618 52.011314 30.797722 173.948303 -179.985565 1.808477 19.596399 -4.727112 -2.456710 -20.092016 6.458057 0.099149 -16.452488 -4.250519 2.173936 52.006264 4.639196 0.447428 6.816112 -12.311937 2.827527 -68.882706 -35.703556 25.010284 -48.526314 7.342093 7.562166 8.524705 12.647240 -56.849010 0.373195 8.812257 0.818997 62.742329 22.947922 15.159366 55.189224 -8.710621 10.314758 -8.534408 -12.637552 22.865091 -5.258016 3.219046 1.704912 22.488800 -5.678138 -3.837683 -20.244814 -2.761034 -3.701672 -12.996762 -9.139769 2.600820 33.199566 5.111343 5.245556 -27.972727 0.873907 2.370966 
1.289855 52.007565 30.802412 173.947968 179.977203 1.696511 19.632135 -4.622223 -2.372443 -20.141336 6.409394 0.103826 -16.448645 -4.167383 2.179916 51.987892 4.474732 0.402994 6.816112 -12.311937 2.827527 -68.863716 -35.714939 25.204668 -48.464233 7.327201 7.532323 8.524705 12.647240 -56.731823 0.373195 8.812257 0.818997 62.764206 22.870329 15.026426 55.231243 -8.716630 10.336023 -8.534408 -12.637552 22.718609 -5.273381 3.232440 1.804129 22.514456 -5.696163 -3.853269 -20.324362 -2.760086 -3.704237 -13.180037 -9.148157 2.485249 33.477978 5.091419 5.294080 -27.758839 0.836636 2.375837 
1.257344 51.997250 30.808662 173.957565 -179.959091 1.654118 19.700201 -4.584611 -2.448802 -20.151056 6.438541 0.082958 -16.419716 -4.247584 2.219350 51.893108 4.474940 0.479078 6.816112 -12.311937 2.827527 -68.941689 -35.767414 25.174536 -48.422260 7.315888 7.523860 8.524705 12.647240 -56.819714 0.373195 8.812257 0.818997 62.646530 22.886843 15.124201 55.198761 -8.708101 10.316564 -8.534408 -12.637552 22.816263 -5.263896 3.164290 1.958790 22.567081 -5.686677 -3.855959 -20.323212 -2.928734 -3.771694 -13.315326 -9.254775 2.443379 33.737011 5.077659 5.303031 -27.647526 0.895973 2.414894 
1.230458 51.992554 30.811163 173.947601 -179.874481 1.594373 19.750366 -4.628395 -2.499366 -20.111565 6.487233 0.077193 -16.463587 -4.401064 2.250222 51.877319 4.679788 0.608188 6.816112 -12.311937 2.827527 -68.959084 -35.824875 25.317423 -48.495174 7.334960 7.551488 8.524705 12.647240 -56.692764 0.373195 8.812257 0.818997 62.594784 22.983208 15.208344 55.209705 -8.710536 10.316551 -8.534408 -12.637552 23.001812 -5.256990 3.042591 2.064268 22.599823 -5.673369 -3.876530 -20.383322 -2.930795 -3.764196 -13.503786 -9.402919 2.286369 34.004696 5.062700 5.352086 -27.560694 1.024094 2.501460 
1.202323 51.979424 30.817415 173.917892 -179.811218 1.453943 19.829794 -4.670398 -2.437864 -20.082151 6.467806 0.100176 -16.586706 -4.477521 2.230980 51.874878 4.821049 0.642778 6.816112 -12.311937 2.827527 -68.949844 -35.913979 25.449173 -48.547771 7.350944 7.570052 8.524705 12.647240 -56.682995 0.373195 8.812257 0.818997 62.603951 23.002981 15.266930 55.399654 -8.739054 10.403236 -8.534408 -12.637552 23.187359 -5.258489 2.945988 2.150881 22.619993 -5.673271 -3.878265 -20.455566 -2.908189 -3.775882 -13.754973 -9.528318 2.228041 34.282425 5.048285 5.391441 -27.485041 1.268324 2.633223 
1.180440 51.967232 30.829922 173.937042 -179.738022 1.324103 19.948866 -4.721343 -2.467759 -20.111380 6.536212 0.096345 -16.568356 -4.499918 2.224397 51.785511 4.813916 0.613555 6.816112 -12.311937 2.827527 -69.034317 -35.936470 25.429281 -48.578712 7.358653 7.589246 8.524705 12.647240 -56.722057 0.373195 8.812257 0.818997 62.538605 22.903608 15.433012 55.611469 -8.771422 10.491827 -8.534408 -12.637552 23.392439 -5.218653 2.857749 2.255218 22.639515 -5.677254 -3.871030 -20.481022 -2.938767 -3.773148 -13.958571 -9.605532 2.293974 34.612312 5.013300 5.420288 -27.491575 1.448146 2.711089 
1.160744 51.969738 30.837111 173.917236 -179.717392 1.218407 19.958183 -4.701727 -2.493926 -20.140579 6.614300 0.082598 -16.430525 -4.544981 2.246592 51.638626 4.769107 0.654833 6.816112 -12.311937 2.827527 -69.126762 -35.860134 25.418381 -48.661327 7.375755 7.618574 8.524705 12.647240 -56.702522 0.373195 8.812257 0.818997 62.433640 22.822752 15.573637 55.707851 -8.789806 10.534467 -8.534408 -12.637552 23.548685 -5.246371 2.827514 2.363628 22.672155 -5.664232 -3.890738 -20.479980 -3.001674 -3.788499 -14.225386 -9.626956 2.376208 34.959137 4.994180 5.473986 -27.457645 1.380837 2.675304 
1.142300 51.969421 30.849932 173.907333 -179.700623 1.151516 20.065107 -4.662773 -2.544017 -20.238892 6.614334 0.061584 -16.366186 -4.475219 2.277020 51.644524 4.668279 0.666426 6.816112 -12.311937 2.827527 -69.159828 -35.798512 25.336378 -48.662483 7.381595 7.617356 8.524705 12.647240 -56.800182 0.373195 8.812257 0.818997 62.435116 22.773947 15.544331 55.718620 -8.792722 10.544263 -8.534408 -12.637552 23.490093 -5.271755 2.821452 2.472752 22.681625 -5.668137 -3.882612 -20.454416 -3.076750 -3.832326 -14.465361 -9.663646 2.323220 35.335857 4.974310 5.520986 -27.365463 1.423454 2.713904 
1.124481 51.968483 30.868372 173.848572 -179.674011 1.076235 20.113703 -4.634468 -2.622993 -20.287951 6.643465 0.036112 -16.394110 -4.503109 2.320241 51.846485 4.753348 0.725801 6.816112 -12.311937 2.827527 -69.148514 -35.789627 25.365221 -48.651646 7.377502 7.617012 8.524705 12.647240 -56.819714 0.373195 8.812257 0.818997 62.444580 22.783955 15.563853 55.696907 -8.787508 10.534418 -8.534408 -12.637552 23.363140 -5.369838 2.792334 2.535554 22.722189 -5.668261 -3.876426 -20.438868 -3.103286 -3.847357 -14.813924 -9.726215 2.144407 35.723015 4.945235 5.575847 -27.139349 1.422854 2.730917 
1.103536 51.958168 30.885878 173.848282 -179.629181 0.933727 20.202200 -4.646856 -2.615973 -20.317347 6.672888 0.042156 -16.474895 -4.818595 2.354492 52.106297 5.288146 0.927539 6.816112 -12.311937 2.827527 -69.162270 -35.817944 25.381151 -48.651646 7.377502 7.617012 8.524705 12.647240 -56.858772 0.373195 8.812257 0.818997 62.414719 22.802729 15.632247 55.696907 -8.787508 10.534418 -8.534408 -12.637552 23.441261 -5.386565 2.722414 2.515403 22.760199 -5.677983 -3.881705 -20.509008 -2.952290 -3.771309 -15.108804 -9.799747 1.978288 36.120228 4.915865 5.620657 -26.868242 1.487360 2.790840 
1.086030 51.942539 30.899946 173.877258 -179.671677 0.693215 20.376644 -4.596686 -2.521748 -20.356676 6.673151 0.057147 -16.780020 -4.690902 -1.076628 52.227840 2.610882 3.055509 6.816112 -12.311937 2.827527 -69.153061 -35.907047 25.356659 -48.672169 7.379844 7.618919 8.524705 12.647240 -56.868546 0.373195 8.812257 0.818997 62.412357 22.880823 15.671321 55.739086 -8.792425 10.546137 -8.534408 -12.637552 23.538919 -5.363379 2.749566 2.602766 22.760201 -5.677989 -3.881705 -20.553869 -2.813064 -3.722754 -15.384472 -9.732754 1.986335 36.576084 4.886165 5.680877 -26.818153 1.504808 2.789977 
